<!DOCTYPE svg PUBLIC "-//W3C//DTD SVG 1.1//EN" "http://www.w3.org/Graphics/SVG/1.1/DTD/svg11.dtd">
<!-- Uploaded to: SVG Repo, www.svgrepo.com, Transformed by: SVG Repo Mixer Tools -->
<svg fill="#cad3f5" height="800px" width="800px" version="1.1" id="Layer_1" xmlns="http://www.w3.org/2000/svg" xmlns:xlink="http://www.w3.org/1999/xlink" viewBox="0 0 512 512" xml:space="preserve">
<g id="SVGRepo_bgCarrier" stroke-width="0"/>
<g id="SVGRepo_tracerCarrier" stroke-linecap="round" stroke-linejoin="round"/>
<g id="SVGRepo_iconCarrier"> <g> <g> <g> <path d="M451.254,0c-33.488,0-60.746,27.249-60.746,60.746h-26.034v112.814c0,4.79-3.879,8.678-8.678,8.678h-43.39v8.669 c0,4.799-3.879,8.678-8.678,8.678c-4.799,0-8.678-3.879-8.678-8.678v-34.703c0-4.79,3.879-8.678,8.678-8.678 c4.799,0,8.678,3.888,8.678,8.678v8.678h34.712V60.746H199.593v104.136h26.034v-8.678c0-4.79,3.879-8.678,8.678-8.678 c4.799,0,8.678,3.888,8.678,8.678v34.703c0,4.799-3.879,8.678-8.678,8.678c-4.799,0-8.678-3.879-8.678-8.678v-8.669h-34.712 c-4.799,0-8.678-3.888-8.678-8.678V60.746h-43.39v69.424h8.678c4.799,0,8.678,3.888,8.678,8.678s-3.879,8.678-8.678,8.678 h-34.712c-4.799,0-8.678-3.888-8.678-8.678s3.879-8.678,8.678-8.678h8.678V60.746H8.678C3.879,60.746,0,64.634,0,69.424v199.593 h121.492v-52.068h-8.678c-4.799,0-8.678-3.888-8.678-8.678c0-4.79,3.879-8.678,8.678-8.678h34.712 c4.799,0,8.678,3.888,8.678,8.678c0,4.79-3.879,8.678-8.678,8.678h-8.678v60.746c0,4.79-3.879,8.678-8.678,8.678H0v34.712 h112.814c4.799,0,8.678,3.888,8.678,8.678c0,62.204-50.61,112.814-112.814,112.814H0v60.746C0,508.112,3.879,512,8.678,512 H130.17V399.186c0-4.79,3.879-8.678,8.678-8.678h60.746v-8.678c0-4.79,3.879-8.678,8.678-8.678c4.799,0,8.678,3.888,8.678,8.678 v34.712c0,4.79-3.879,8.678-8.678,8.678c-4.799,0-8.678-3.888-8.678-8.678v-8.678h-52.068V512h190.915V407.864h-52.068v8.678 c0,4.79-3.879,8.678-8.678,8.678s-8.678-3.888-8.678-8.678V381.83c0-4.79,3.879-8.678,8.678-8.678s8.678,3.888,8.678,8.678v8.678 h60.746c4.799,0,8.678,3.888,8.678,8.678V512h95.978C484.985,512,512,484.986,512,451.254V60.746C512,27.249,484.751,0,451.254,0 z M494.644,408.776c-0.078-0.078-0.174-0.148-0.252-0.234c-0.677-0.686-1.406-1.31-2.117-1.961 c-0.729-0.677-1.44-1.371-2.213-2.005c-0.746-0.634-1.553-1.198-2.334-1.788c-0.781-0.59-1.536-1.206-2.343-1.753 c-0.842-0.573-1.727-1.067-2.586-1.597c-0.816-0.495-1.605-1.024-2.447-1.484c-0.902-0.503-1.857-0.92-2.794-1.371 c-0.842-0.408-1.666-0.859-2.534-1.224c-0.989-0.425-2.013-0.755-3.02-1.12c-0.859-0.321-1.71-0.677-2.595-0.955 c-1.102-0.347-2.248-0.599-3.384-0.885c-0.824-0.208-1.623-0.46-2.456-0.634c-1.336-0.278-2.699-0.443-4.061-0.633 c-0.677-0.087-1.328-0.234-2.005-0.304c-2.057-0.208-4.139-0.321-6.248-0.321c-16.983,0-32.351,7.003-43.39,18.267V69.424v-8.678 c0-23.925,19.465-43.39,43.39-43.39c23.925,0,43.39,19.465,43.39,43.39V408.776z"/> <path d="M103.747,338.439H0.002v86.78H8.68C58.387,425.219,99.347,387.027,103.747,338.439z"/> </g> </g> </g> </g>
</svg>