<!DOCTYPE svg PUBLIC "-//W3C//DTD SVG 1.1//EN" "http://www.w3.org/Graphics/SVG/1.1/DTD/svg11.dtd">
<!-- Uploaded to: SVG Repo, www.svgrepo.com, Transformed by: SVG Repo Mixer Tools -->
<svg fill="#b7bdf8" version="1.1" id="Layer_1" xmlns="http://www.w3.org/2000/svg" xmlns:xlink="http://www.w3.org/1999/xlink" viewBox="0 0 511.999 511.999" xml:space="preserve" width="800px" height="800px">
<g id="SVGRepo_bgCarrier" stroke-width="0"/>
<g id="SVGRepo_tracerCarrier" stroke-linecap="round" stroke-linejoin="round"/>
<g id="SVGRepo_iconCarrier"> <g> <g> <path d="M428.129,70.914v424.587h35.958c26.419,0,47.912-21.494,47.912-47.913V70.914H428.129z"/> </g> </g> <g> <g> <rect x="97.649" y="271.209" width="202.416" height="69.513"/> </g> </g> <g> <g> <path d="M0,16.498v431.09c0,26.419,21.494,47.913,47.912,47.913h349.799v-394.17V46.915V16.498H0z M67.451,90.899H330.26v30.417 H67.451V90.899z M67.451,140.863H330.26v30.417H67.451V140.863z M67.451,190.827H330.26v30.417H67.451V190.827z M330.26,421.1 H67.451v-30.417H330.26V421.1z M330.48,371.136H67.232V240.791H330.48V371.136z"/> </g> </g> </g>
</svg>